<svg width="175" height="175" viewBox="0 0 175 175" fill="none" xmlns="http://www.w3.org/2000/svg">
<ellipse cx="86.6337" cy="87.5" rx="86.6337" ry="87.5" fill="url(#paint0_linear_46_6)"/>
<path fill-rule="evenodd" clip-rule="evenodd" d="M140.798 35.4297C140.072 35.6555 139.501 36.3544 139.273 37.2944C139.22 37.5123 139.012 38.0216 138.811 38.4261C138.037 39.9835 136.236 41.4664 132.915 43.2799C131.831 43.8719 129.121 44.7726 127.166 45.1911C126.095 45.4203 125.625 45.4888 122.805 45.827C120.214 46.1377 111.276 45.9335 106.954 45.4648C104.745 45.2252 102.422 45.3071 100.362 45.6972C99.1835 45.9205 96.3484 46.6655 94.9435 47.1212C91.6564 48.1875 88.1491 50.0776 85.0361 52.4602C83.9819 53.2671 81.6003 55.6769 80.6011 56.9478C79.6135 58.2039 78.4589 59.9716 77.998 60.9328C77.5081 61.9544 77.0313 63.4065 76.869 64.371C76.7937 64.8181 76.7205 65.1957 76.7063 65.2102C76.6922 65.2247 76.0857 65.1446 75.3587 65.0321C73.0381 64.6732 72.1871 64.5919 69.7504 64.4967C67.5327 64.41 62.7655 64.5171 60.9879 64.6934L59.5852 64.8326L59.0873 64.5833C58.4479 64.2631 55.9653 63.1272 54.9502 62.6905C54.0246 62.2924 52.0309 61.5851 51.2296 61.3708C50.5729 61.1952 46.5849 60.6461 45.9788 60.6479C44.9079 60.651 43.4506 61.2977 42.5246 62.1806C40.8993 63.7304 38.4506 68.9873 37.3175 73.3589C36.8938 74.9936 36.532 77.4575 36.497 78.9461L36.4675 80.2006L35.9991 80.7855C34.7243 82.3776 33.6335 84.0736 32.5469 86.1532C30.544 89.9865 29.7144 91.9778 27.9663 97.1483C26.4913 101.511 26.0622 103.073 25.2674 106.972C24.4327 111.067 24.2574 112.4 24.2573 114.658C24.2572 116.09 24.3454 116.69 24.7058 117.71C25.2769 119.327 26.1528 120.523 29.0694 123.668C30.3237 125.021 32.9637 127.166 35.4182 128.827C35.7074 129.023 36.2533 129.446 36.6314 129.767C37.9841 130.917 39.3624 131.878 41.0246 132.828C41.7869 133.264 42.0491 133.453 42.0148 133.543C41.7376 134.274 41.679 138.304 41.9193 140.108C42.2673 142.721 42.8747 145.786 43.4278 147.721C44.1116 150.113 45.2828 153.284 46.4083 155.79C46.624 156.27 46.8466 156.81 46.903 156.99C47.1649 157.825 48.1476 160.202 48.6307 161.168C49.2118 162.331 49.4099 162.83 49.4099 163.132C49.4099 163.238 49.2317 163.887 49.014 164.572C48.5013 166.187 48.4117 166.619 48.4531 167.277C48.4822 167.739 48.5221 167.856 48.7224 168.067C49.1281 168.495 49.8114 168.547 50.3488 168.191C50.4629 168.116 50.5685 168.066 50.5836 168.082C50.5986 168.097 50.5585 168.33 50.4944 168.599C50.2385 169.675 50.3582 170.295 50.8737 170.565C51.1998 170.735 51.5968 170.714 52.6045 170.471C54.3065 170.06 55.1975 169.774 56.0097 169.376L56.827 168.975L57.1643 169.144C57.3499 169.237 57.7374 169.332 58.0254 169.355L58.5491 169.398L58.6441 169.718C58.7621 170.116 59.2804 170.723 59.6709 170.92C60.126 171.15 60.4566 171.185 60.8367 171.045C61.0241 170.975 61.7052 170.743 62.3502 170.528C62.9951 170.313 63.7901 170.001 64.1167 169.833C64.4433 169.666 65.0256 169.437 65.4108 169.324C67.3363 168.762 69.0501 167.609 70.648 165.801C71.6368 164.682 73.2883 162.427 74.2713 160.854C74.7283 160.123 75.6619 158.66 76.3462 157.603C77.0547 156.509 77.8615 155.139 78.2204 154.421C78.5671 153.727 78.8636 153.146 78.8796 153.13C78.8955 153.114 79.3046 153.264 79.7886 153.464C80.9534 153.945 82.6269 154.476 83.3694 154.602L83.9674 154.703L84.0684 155.029C84.2604 155.648 84.8153 156.851 85.2666 157.627C85.8108 158.561 86.8682 159.777 87.9114 160.666C88.5434 161.205 88.672 161.354 88.6547 161.525C88.5832 162.237 88.6073 163.239 88.7024 163.511C88.8402 163.904 89.1757 164.094 89.6044 164.021C89.9474 163.962 90.7893 163.58 91.1557 163.316L91.3944 163.144L91.8547 163.352C92.1078 163.466 92.5515 163.624 92.8407 163.702C93.1298 163.78 93.3946 163.868 93.4291 163.897C93.4637 163.927 93.4354 164.197 93.3664 164.498C93.1948 165.246 93.0763 167.013 93.1546 167.654L93.2192 168.181L92.7388 168.758C92.0553 169.578 91.7722 170.177 91.7312 170.888C91.6912 171.581 91.846 171.892 92.3639 172.159C92.6753 172.32 92.7914 172.33 93.8266 172.291C94.4451 172.268 95.3313 172.184 95.7959 172.104C96.5082 171.981 96.7147 171.974 97.1113 172.056C97.37 172.11 97.7458 172.155 97.9462 172.155H98.3108L98.4485 172.596C98.6202 173.147 99.2581 174.143 99.6909 174.536C100.26 175.053 100.842 175.129 101.775 174.808C102.422 174.586 104.345 173.675 104.819 173.366C105.249 173.086 105.266 173.083 105.967 173.117L106.679 173.153L106.871 173.459C107.11 173.843 107.592 174.264 108.145 174.572C108.494 174.766 108.667 174.809 109.097 174.808C109.738 174.806 109.914 174.717 110.866 173.917C111.409 173.459 111.633 173.209 111.777 172.899L111.968 172.488L112.376 172.485C113.156 172.479 114.459 172.025 115.607 171.361C115.963 171.155 116.873 170.562 117.629 170.042C118.8 169.238 119.179 168.921 120.179 167.908C121.671 166.396 122.4 165.551 123.532 164.02C124.806 162.299 125.52 161.209 125.997 160.26C126.223 159.81 126.445 159.396 126.49 159.34C126.548 159.268 126.866 159.239 127.56 159.24C128.659 159.242 128.913 159.287 129.907 159.65L130.594 159.902L130.964 161.067C131.248 161.963 131.452 162.432 131.849 163.1C132.917 164.897 133.859 166.067 134.505 166.398C134.748 166.522 134.896 166.652 134.895 166.74C134.894 166.818 134.804 167.268 134.694 167.74C134.446 168.808 134.444 169.093 134.677 169.54C134.96 170.081 135.32 170.235 136.271 170.225C137.148 170.216 137.71 170.049 138.481 169.569L138.952 169.276L139.128 169.439C139.418 169.707 139.845 169.888 140.303 169.94C140.735 169.988 140.737 169.99 140.886 170.388C140.969 170.608 141.12 170.878 141.222 170.988C141.719 171.527 142.659 171.803 143.685 171.711C144.568 171.631 145.954 171.121 146.587 170.641C146.764 170.507 146.971 170.447 147.32 170.427C147.745 170.402 147.838 170.424 148.047 170.603C148.774 171.221 150.074 171.828 150.671 171.828C151.058 171.828 152.449 171.464 152.836 171.261C153 171.175 153.33 170.903 153.569 170.656C153.882 170.334 154.087 170.192 154.297 170.154C154.658 170.089 156.181 169.318 156.908 168.832C157.615 168.36 158.539 167.359 159.229 166.315C161.743 162.516 163.491 156.697 164.219 149.714C164.393 148.043 164.458 143.829 164.343 141.722C163.998 135.395 162.452 129.859 160.241 127.034L159.723 126.372L160.094 126.148C161.083 125.551 163.571 123.835 164.252 123.279C165.239 122.475 167.646 120.058 168.646 118.867C169.531 117.814 170.204 116.839 171.318 114.995C172.905 112.37 174.027 109.644 174.527 107.195C174.897 105.384 175.114 101.499 174.937 99.8583C174.563 96.4026 173.32 92.0489 171.512 87.8696C170.818 86.2627 167.329 79.1378 166.089 76.7924C165.471 75.6234 164.728 74.1887 164.438 73.6041C164.149 73.0196 163.619 72.0447 163.262 71.4377C162.519 70.1747 159.907 65.097 159.373 63.8758C158.067 60.8925 157.013 58.0764 156.664 56.6409C156.411 55.5973 156.32 54.682 156.414 54.1286C156.569 53.2215 156.762 52.5049 157.109 51.5506C157.563 50.3016 157.6 50.2327 158.296 49.387C159.281 48.1894 160.409 46.65 160.619 46.2176C160.777 45.8918 160.818 45.6819 160.818 45.1829C160.818 44.609 160.797 44.5308 160.572 44.2428C160.183 43.7457 159.425 43.4021 158.591 43.3444C157.73 43.285 156.369 43.4707 155.133 43.8164C154.63 43.9568 154.204 44.0562 154.185 44.0373C154.121 43.9718 154.798 41.3089 155.17 40.1681C155.661 38.663 155.722 37.9395 155.407 37.395C154.98 36.6584 154.109 36.395 152.805 36.6077C151.935 36.7495 151.259 37.0011 149.967 37.6637C148.741 38.2922 147.841 38.9337 146.818 39.9069L146.162 40.5302L146.066 40.2063C146.014 40.0283 145.769 39.4768 145.524 38.981C145.148 38.2218 144.961 37.9569 144.344 37.3044C143.38 36.2848 142.155 35.4615 141.448 35.3573C141.292 35.3344 141 35.367 140.798 35.4297ZM144.557 44.9301C143.28 46.5502 142.129 47.4374 139.787 48.6062C138.899 49.0496 137.863 49.5355 137.485 49.686C137.106 49.8366 136.269 50.2089 135.624 50.5134C134.979 50.8178 134.206 51.1785 133.905 51.3149C133.374 51.5555 133.182 51.7519 133.33 51.9014C133.487 52.0604 135.871 51.5622 137.525 51.0246C138.437 50.7283 140.832 49.6657 141.771 49.1407C143.328 48.2706 144.603 46.9554 145.19 45.6131C145.406 45.1197 145.485 44.133 145.309 44.133C145.241 44.133 144.903 44.4917 144.557 44.9301ZM150.766 50.5709C150.217 51.729 149.895 52.7329 149.236 55.3328C148.558 58.0084 148.557 58.7656 149.219 62.8464C149.782 66.3139 150.263 67.9034 151.821 71.4377C153.798 75.9206 154.192 76.9269 155.697 81.3296C156.954 85.0068 157.262 86.0333 157.498 87.3293C157.679 88.3281 157.874 90.6371 157.985 93.1017C158.06 94.7829 158.123 95.4483 158.189 95.2681C158.356 94.8091 158.763 92.4076 158.874 91.2214C159.131 88.4734 159.127 87.9193 158.84 86.2755C158.452 84.0494 158.404 83.8749 157.339 80.7982C155.767 76.2547 155.369 75.2463 153.763 71.7239C151.774 67.3613 151.298 65.9062 150.668 62.2561C150.304 60.1518 150.182 59.0365 150.184 57.8294C150.186 56.3462 150.286 55.5133 150.744 53.2073C151.114 51.3379 151.37 49.6396 151.294 49.5621C151.276 49.5437 151.038 49.9976 150.766 50.5709ZM124.722 53.0011C124.22 53.1066 123.754 53.2142 123.687 53.2402C123.491 53.3162 121.141 53.6788 119.676 53.8591C117.367 54.1433 114.867 54.6754 113.141 55.2503C112.087 55.6011 110.266 56.5304 109.34 57.1896C108.539 57.7595 107.097 59.1747 105.36 61.0963C104.831 61.6808 103.997 62.5359 103.506 62.9965C102.761 63.6958 102.545 63.8532 102.196 63.9504C101.966 64.0144 101.017 64.2738 100.088 64.5269C97.7952 65.1514 95.0328 66.2249 93.4373 67.1117C93.1204 67.2878 92.7747 67.431 92.669 67.4298C92.5633 67.4287 92.2402 67.3419 91.951 67.2369C90.315 66.6429 89.9154 66.5249 89.2869 66.4503C87.5838 66.2481 84.0258 65.9604 83.2284 65.9604C81.9618 65.9604 80.3857 66.0565 80.3857 66.1336C80.3857 66.2716 80.7363 66.3784 81.5782 66.497C84.6978 66.9361 88.1006 67.5934 89.8646 68.0975L91.0536 68.4372L90.6934 68.936C90.4952 69.2104 90.2166 69.6372 90.0744 69.8845C89.9321 70.1318 89.6228 70.634 89.3871 71.0006C89.1514 71.3673 88.9586 71.6891 88.9586 71.7159C88.9586 71.7428 89.0373 71.7647 89.1334 71.7647C89.3323 71.7647 89.596 71.6173 91.1827 70.6182C93.0482 69.4436 94.1895 68.942 96.5662 68.252C97.1696 68.0768 98.1158 67.7521 98.669 67.5304C99.8991 67.0373 100.815 66.7327 102.519 66.2489C104.736 65.6201 107.801 64.9207 108.976 64.7757C109.526 64.7079 109.853 64.8917 110.284 65.5108C110.818 66.2797 111.959 68.6776 112.284 69.7169C112.745 71.1926 113.396 74.6564 113.752 77.5282C113.863 78.4274 114.061 79.807 114.193 80.5938C114.324 81.3807 114.524 82.6131 114.637 83.3325C115.067 86.0592 115.567 88.3619 116.104 90.0919C116.427 91.1339 116.919 93.5417 117.145 95.1882C117.262 96.0414 117.409 96.9603 117.471 97.2301C117.651 98.0201 117.832 99.3546 117.832 99.9069C117.832 100.188 117.905 100.989 117.993 101.686C118.16 102.996 118.36 103.751 119.328 106.706L119.754 108.007L119.721 106.011C119.683 103.664 119.66 103.261 119.491 102.013C119.421 101.495 119.331 100.481 119.29 99.7593C119.245 98.9479 119.136 98.0422 119.005 97.3885C118.888 96.8068 118.686 95.6319 118.556 94.7776C118.426 93.9233 118.208 92.7116 118.071 92.0849C117.873 91.1787 117.478 88.2206 117.544 88.1366C117.553 88.126 117.739 88.3651 117.958 88.6679C119.307 90.5308 123.51 95.128 124.988 96.3562C125.344 96.6525 125.891 97.1407 126.202 97.4411C126.514 97.7415 127.333 98.4957 128.022 99.1172C128.711 99.7387 129.33 100.311 129.397 100.39C129.557 100.579 131.721 102.177 133.552 103.458C134.358 104.023 135.855 105.118 136.878 105.891C137.901 106.665 139.248 107.648 139.87 108.075C141.822 109.414 142.429 109.872 143.162 110.558C143.913 111.26 144.015 111.335 145.936 112.599C147.377 113.547 149.254 115.051 149.947 115.814C150.22 116.114 150.923 117.004 151.51 117.79C154.038 121.181 155.227 122.682 155.259 122.521C155.282 122.407 154.715 120.856 154.337 120.001C153.987 119.207 152.616 117.058 151.687 115.847C150.182 113.885 148.822 112.574 146.874 111.206L146.194 110.728L146.833 110.588C147.185 110.512 147.716 110.356 148.012 110.242C148.935 109.89 150.809 108.886 151.254 108.505C151.487 108.306 152.024 107.854 152.447 107.501C154.122 106.101 155.935 103.935 156.962 102.106C157.236 101.617 157.461 101.194 157.461 101.165C157.461 100.934 156.981 101.342 155.575 102.769C154.677 103.679 153.561 104.724 153.094 105.09C151.9 106.025 150.481 106.98 149.86 107.266C148.924 107.697 147.417 108.225 146.406 108.477C145.863 108.611 145.212 108.794 144.958 108.882C144.703 108.971 144.425 109.043 144.339 109.043C144.253 109.043 143.704 108.683 143.119 108.242C142.533 107.802 141.872 107.318 141.65 107.166C141.427 107.014 140.977 106.648 140.648 106.352C139.568 105.379 138.841 104.786 137.064 103.43C136.099 102.694 134.866 101.723 134.324 101.271C132.858 100.051 132.16 99.5123 130.752 98.5114C129.125 97.3548 127.663 96.2068 126.394 95.0895C122.133 91.3396 120.348 89.3678 119.092 87.0242C118.648 86.1967 116.571 81.4601 116.505 81.1252C116.479 80.9903 116.402 80.4504 116.335 79.9254C116.185 78.7528 115.453 74.6463 115.244 73.8085C115.159 73.4713 115.014 72.7419 114.921 72.1876C114.828 71.6334 114.533 70.2906 114.265 69.2037C113.87 67.6033 113.703 67.0722 113.384 66.4101C112.555 64.6888 111.603 63.5293 110.597 63.0174C110.057 62.7422 110.003 62.7315 109.182 62.7384C108.711 62.7422 107.861 62.8256 107.286 62.924C106.712 63.0222 106.229 63.0885 106.212 63.0715C106.162 63.0215 107.566 61.1583 108.232 60.3905C109.642 58.7641 111.636 57.3784 113.666 56.6136C115.301 55.9981 117.815 55.4238 119.813 55.2099C121.257 55.0551 122.456 54.8726 122.846 54.7479C123.898 54.4117 126.239 53.1382 126.242 52.9008C126.243 52.7499 125.77 52.7811 124.722 53.0011ZM76.9484 74.4279C73.7718 74.7106 70.9065 75.2003 68.3755 75.8931C66.0156 76.5389 61.9549 78.0916 59.7217 79.2019C58.5858 79.7668 56.7837 80.7993 56.5752 81.0047C56.4887 81.0901 56.8245 81.5716 57.2578 81.9836C57.4232 82.141 58.0271 82.7659 58.5997 83.3722C60.2956 85.1683 61.3105 85.9139 62.6737 86.3658C63.2785 86.5664 63.4874 86.5943 64.4125 86.5982L65.4639 86.6025L66.0465 86.3001C66.7528 85.9335 68.7951 84.5242 69.6291 83.8278C69.9627 83.5493 70.727 82.949 71.3275 82.4939C71.928 82.0388 72.6377 81.4803 72.9046 81.2528C73.1715 81.0253 73.8993 80.4205 74.5221 79.9088C75.7764 78.878 77.4324 77.2039 78.1304 76.261C78.5873 75.6438 79.0916 74.7285 79.0916 74.5164C79.0916 74.4479 78.9702 74.3819 78.7883 74.3515C78.4339 74.2922 78.506 74.2893 76.9484 74.4279ZM50.3804 87.996C49.2759 88.7774 48.5314 89.4646 48.3477 89.8725C47.9717 90.7067 48.3226 93.1762 48.9076 93.8143C49.0793 94.0017 49.1396 94.0174 49.5158 93.9723C50.2136 93.8888 50.6619 93.4096 50.7355 92.6684C50.7587 92.4346 50.8733 91.4215 50.9902 90.4171C51.2146 88.4884 51.3145 87.3738 51.2615 87.3872C51.2439 87.3916 50.8475 87.6656 50.3804 87.996ZM36.6683 89.3462C35.964 89.8384 34.6277 91.1962 33.6964 92.3659C31.7194 94.8492 30.5875 97.0302 29.4411 100.565C28.6941 102.869 28.5884 103.449 28.5896 105.242C28.5911 107.397 28.9047 109.423 29.4795 110.99L29.6839 111.548L30.5494 112.05C32.2136 113.016 34.9604 114.2 36.3776 114.563C37.2883 114.796 38.4216 114.949 38.5191 114.851C38.6607 114.71 39.0552 113.358 39.2506 112.345C39.7966 109.513 40.1495 103.783 39.9637 100.764C39.5865 94.6331 39.3176 92.2014 38.8266 90.4811C38.5393 89.4745 38.3387 89.2284 37.7331 89.1402C37.5161 89.1086 37.2961 89.0663 37.2443 89.0462C37.1923 89.026 36.9331 89.1611 36.6683 89.3462ZM94.9435 91.5499C94.4127 91.6236 92.8577 92.248 92.088 92.6963C89.4408 94.2383 86.443 97.2783 84.1505 100.745C82.909 102.623 82.3698 103.92 81.6412 106.782C80.8078 110.056 80.6748 111.231 80.793 114.275C80.8376 115.422 80.8907 116.436 80.9111 116.53C80.9579 116.745 81.1529 116.803 83.0546 117.168C85.0477 117.55 85.4819 117.605 87.3924 117.721C89.8845 117.873 91.4869 117.706 93.8476 117.051C94.5126 116.866 96.3141 116.463 97.851 116.155C100.646 115.594 101.774 115.284 102.981 114.743L103.618 114.458L103.642 112.425C103.675 109.683 103.491 106.201 103.231 104.646C102.858 102.413 102.404 100.773 101.577 98.6607C100.99 97.1619 100.732 96.6466 100.079 95.674C99.0392 94.1234 97.9944 92.9698 97.1105 92.3964C96.6132 92.0739 95.4631 91.452 95.4105 91.4774C95.3983 91.4833 95.1881 91.5159 94.9435 91.5499ZM64.8553 95.7618C64.5942 96.0351 64.0433 96.4615 61.6156 98.269C60.4473 99.1387 59.0996 100.311 58.6582 100.842C57.8714 101.788 57.8186 102.091 58.298 102.907C59.0134 104.124 60.4666 105.146 62.8428 106.103C63.2933 106.284 63.8037 106.506 63.9767 106.595L64.2915 106.757L64.4496 106.495C64.6721 106.125 65.151 104.6 65.2977 103.794C65.6217 102.015 65.8486 98.5207 65.7345 97.0666C65.6144 95.5353 65.3899 95.2021 64.8553 95.7618Z" fill="#2C2C2C"/>
<defs>
<linearGradient id="paint0_linear_46_6" x1="2.80139" y1="7.00692e-07" x2="92.9882" y2="99.3827" gradientUnits="userSpaceOnUse">
<stop stop-color="#21DB76"/>
<stop offset="1" stop-color="#0E8846"/>
</linearGradient>
</defs>
</svg>
