<svg width="505" height="500" viewBox="0 0 505 500" fill="none" xmlns="http://www.w3.org/2000/svg">
<circle cx="250" cy="250" r="250" fill="url(#paint0_linear_42_14)"/>
<path fill-rule="evenodd" clip-rule="evenodd" d="M406.303 101.228C404.209 101.873 402.559 103.87 401.902 106.555C401.749 107.178 401.15 108.633 400.57 109.789C398.337 114.239 393.139 118.475 383.555 123.657C380.426 125.348 372.608 127.922 366.965 129.117C363.874 129.772 362.518 129.968 354.382 130.934C346.902 131.822 321.11 131.239 308.638 129.9C302.264 129.215 295.56 129.449 289.617 130.564C286.216 131.201 278.034 133.33 273.98 134.632C264.494 137.679 254.373 143.079 245.39 149.886C242.348 152.192 235.476 159.077 232.592 162.708C229.742 166.297 226.41 171.348 225.08 174.094C223.667 177.013 222.291 181.161 221.822 183.917C221.605 185.195 221.394 186.273 221.353 186.315C221.312 186.356 219.562 186.127 217.464 185.806C210.767 184.781 208.312 184.548 201.28 184.276C194.88 184.029 181.123 184.335 175.994 184.838L171.946 185.236L170.509 184.524C168.664 183.609 161.5 180.364 158.571 179.116C155.9 177.978 150.147 175.958 147.834 175.345C145.939 174.843 134.431 173.275 132.682 173.28C129.592 173.289 125.386 175.136 122.714 177.659C118.024 182.087 110.958 197.107 107.688 209.597C106.465 214.267 105.421 221.307 105.32 225.56L105.235 229.145L103.883 230.816C100.205 235.365 97.057 240.21 93.9215 246.152C88.1416 257.104 85.7475 262.794 80.7031 277.567C76.4466 290.032 75.2085 294.494 72.9148 305.634C70.506 317.334 70.0002 321.144 70 327.595C69.9998 331.684 70.2542 333.399 71.2941 336.314C72.9423 340.935 75.4699 344.352 83.8863 353.337C87.5059 357.202 95.1241 363.331 102.207 368.077C103.042 368.636 104.617 369.845 105.708 370.764C109.612 374.05 113.589 376.793 118.386 379.509C120.585 380.754 121.342 381.295 121.243 381.553C120.443 383.639 120.274 395.156 120.968 400.31C121.972 407.774 123.725 416.532 125.321 422.061C127.294 428.895 130.673 437.953 133.921 445.114C134.544 446.486 135.186 448.029 135.349 448.543C136.105 450.928 138.941 457.719 140.335 460.48C142.012 463.802 142.583 465.228 142.583 466.09C142.583 466.396 142.069 468.248 141.441 470.207C139.961 474.819 139.703 476.054 139.822 477.934C139.906 479.254 140.021 479.588 140.599 480.192C141.77 481.415 143.742 481.564 145.293 480.547C145.622 480.331 145.927 480.19 145.97 480.233C146.013 480.277 145.898 480.942 145.713 481.712C144.974 484.786 145.32 486.558 146.807 487.328C147.748 487.815 148.894 487.753 151.802 487.059C156.713 485.887 159.285 485.069 161.628 483.931L163.987 482.786L164.96 483.268C165.496 483.533 166.614 483.805 167.445 483.872L168.956 483.993L169.231 484.909C169.571 486.045 171.067 487.779 172.193 488.343C173.507 489 174.461 489.101 175.558 488.699C176.098 488.501 178.064 487.836 179.925 487.223C181.786 486.609 184.08 485.716 185.023 485.238C185.965 484.76 187.646 484.105 188.757 483.784C194.314 482.176 199.259 478.882 203.87 473.717C206.724 470.521 211.489 464.079 214.326 459.583C215.645 457.493 218.339 453.313 220.314 450.294C222.358 447.168 224.686 443.255 225.722 441.202C226.722 439.22 227.578 437.561 227.624 437.515C227.67 437.469 228.851 437.898 230.247 438.469C233.609 439.842 238.438 441.361 240.581 441.719L242.306 442.008L242.598 442.94C243.152 444.71 244.753 448.147 246.055 450.362C247.626 453.033 250.677 456.505 253.687 459.047C255.511 460.587 255.882 461.011 255.833 461.499C255.626 463.534 255.696 466.397 255.97 467.174C256.368 468.298 257.336 468.84 258.573 468.631C259.563 468.463 261.992 467.37 263.05 466.617L263.738 466.126L265.067 466.72C265.797 467.047 267.078 467.497 267.912 467.72C268.746 467.943 269.51 468.194 269.61 468.278C269.71 468.363 269.628 469.135 269.429 469.994C268.934 472.131 268.592 477.18 268.818 479.012L269.004 480.518L267.618 482.165C265.646 484.509 264.829 486.219 264.71 488.25C264.595 490.231 265.041 491.12 266.536 491.883C267.435 492.342 267.77 492.372 270.757 492.261C272.542 492.194 275.099 491.953 276.44 491.725C278.495 491.374 279.091 491.353 280.236 491.59C280.982 491.744 282.067 491.87 282.645 491.87H283.697L284.095 493.133C284.59 494.706 286.431 497.551 287.68 498.674C289.323 500.152 291 500.369 293.693 499.453C295.562 498.817 301.11 496.215 302.477 495.333C303.717 494.533 303.769 494.522 305.792 494.621L307.846 494.722L308.398 495.598C309.09 496.694 310.481 497.896 312.077 498.777C313.083 499.332 313.581 499.454 314.823 499.45C316.674 499.445 317.181 499.192 319.927 496.905C321.495 495.598 322.142 494.884 322.557 493.998L323.108 492.824L324.284 492.814C326.537 492.796 330.297 491.501 333.61 489.603C334.637 489.015 337.263 487.319 339.445 485.835C342.823 483.538 343.916 482.632 346.801 479.738C351.108 475.417 353.212 473.002 356.479 468.63C360.154 463.712 362.217 460.596 363.592 457.886C364.245 456.601 364.885 455.419 365.015 455.258C365.182 455.053 366.099 454.967 368.102 454.971C371.272 454.978 372.005 455.105 374.873 456.143L376.858 456.862L377.924 460.191C378.745 462.753 379.334 464.091 380.479 465.999C383.561 471.134 386.279 474.477 388.143 475.422C388.845 475.778 389.272 476.149 389.269 476.4C389.267 476.623 389.006 477.909 388.69 479.258C387.974 482.308 387.967 483.124 388.641 484.4C389.457 485.945 390.496 486.387 393.241 486.357C395.772 486.33 397.391 485.854 399.618 484.483L400.976 483.646L401.485 484.111C402.322 484.876 403.552 485.395 404.876 485.542C406.12 485.68 406.127 485.685 406.558 486.823C406.796 487.451 407.231 488.223 407.525 488.538C408.962 490.078 411.674 490.865 414.633 490.602C417.182 490.375 421.182 488.916 423.009 487.547C423.52 487.164 424.115 486.991 425.125 486.933C426.349 486.862 426.619 486.927 427.223 487.436C429.32 489.202 433.072 490.936 434.795 490.936C435.912 490.936 439.924 489.896 441.043 489.316C441.515 489.071 442.467 488.294 443.158 487.588C444.059 486.667 444.652 486.263 445.258 486.154C446.3 485.967 450.694 483.766 452.793 482.378C454.833 481.03 457.498 478.169 459.491 475.185C466.743 464.331 471.79 447.705 473.889 427.755C474.391 422.981 474.58 410.94 474.248 404.919C473.251 386.844 468.789 371.027 462.41 362.953L460.916 361.062L461.985 360.423C464.84 358.718 472.019 353.814 473.986 352.226C476.832 349.929 483.778 343.022 486.665 339.62C489.217 336.611 491.159 333.825 494.375 328.558C498.955 321.057 502.192 313.268 503.636 306.27C504.704 301.097 505.33 289.996 504.818 285.31C503.74 275.436 500.151 262.997 494.936 251.056C492.931 246.465 482.865 226.108 479.286 219.407C477.502 216.067 475.359 211.968 474.523 210.298C473.686 208.628 472.159 205.842 471.128 204.108C468.983 200.499 461.447 185.991 459.905 182.502C456.138 173.979 453.095 165.933 452.089 161.831C451.358 158.85 451.095 156.234 451.367 154.653C451.814 152.061 452.371 150.014 453.372 147.287C454.681 143.719 454.79 143.522 456.797 141.106C459.639 137.684 462.895 133.286 463.501 132.05C463.957 131.119 464.074 130.52 464.074 129.094C464.074 127.454 464.015 127.231 463.364 126.408C462.242 124.988 460.056 124.006 457.648 123.841C455.163 123.671 451.237 124.202 447.669 125.19C446.219 125.591 444.989 125.875 444.935 125.821C444.748 125.634 446.704 118.026 447.777 114.766C449.193 110.466 449.371 108.399 448.46 106.843C447.228 104.738 444.715 103.986 440.951 104.593C438.44 104.999 436.489 105.717 432.762 107.611C429.225 109.406 426.626 111.239 423.674 114.02L421.783 115.801L421.506 114.875C421.354 114.367 420.649 112.791 419.94 111.374C418.856 109.205 418.318 108.448 416.537 106.584C413.754 103.671 410.22 101.319 408.177 101.021C407.728 100.956 406.885 101.049 406.303 101.228ZM417.151 128.372C413.465 133.001 410.143 135.535 403.386 138.875C400.823 140.142 397.833 141.53 396.742 141.96C395.65 142.39 393.235 143.454 391.374 144.324C389.512 145.194 387.28 146.224 386.412 146.614C384.881 147.301 384.325 147.863 384.751 148.29C385.205 148.744 392.086 147.321 396.858 145.785C399.489 144.938 406.4 141.902 409.111 140.402C413.604 137.916 417.283 134.158 418.978 130.323C419.601 128.914 419.829 126.094 419.32 126.094C419.125 126.094 418.148 127.119 417.151 128.372ZM435.069 144.488C433.484 147.797 432.553 150.666 430.653 158.094C428.698 165.738 428.693 167.902 430.604 179.561C432.228 189.468 433.617 194.01 438.114 204.108C443.817 216.916 444.955 219.791 449.297 232.37C452.924 242.877 453.813 245.809 454.493 249.512C455.017 252.366 455.58 258.963 455.9 266.005C456.118 270.808 456.298 272.71 456.488 272.195C456.972 270.883 458.144 264.022 458.464 260.633C459.206 252.781 459.195 251.198 458.367 246.502C457.246 240.141 457.108 239.643 454.036 230.852C449.498 217.871 448.352 214.989 443.717 204.925C437.977 192.461 436.604 188.304 434.784 177.875C433.734 171.862 433.383 168.676 433.387 165.227C433.393 160.989 433.684 158.609 435.003 152.021C436.072 146.68 436.812 141.828 436.591 141.606C436.538 141.553 435.853 142.85 435.069 144.488ZM359.913 151.432C358.463 151.733 357.118 152.041 356.925 152.115C356.359 152.332 349.578 153.368 345.35 153.883C338.687 154.695 331.473 156.216 326.492 157.858C323.452 158.86 318.196 161.516 315.523 163.399C313.212 165.027 309.052 169.071 304.038 174.561C302.513 176.231 300.106 178.674 298.69 179.99C296.541 181.988 295.916 182.438 294.908 182.716C294.244 182.898 291.508 183.64 288.827 184.363C282.209 186.147 274.238 189.214 269.634 191.748C268.719 192.251 267.721 192.66 267.416 192.657C267.111 192.653 266.179 192.405 265.345 192.106C260.623 190.408 259.471 190.071 257.657 189.858C252.742 189.28 242.475 188.458 240.174 188.458C236.519 188.458 231.97 188.733 231.97 188.953C231.97 189.347 232.982 189.653 235.412 189.991C244.414 191.246 254.234 193.124 259.324 194.564L262.755 195.535L261.715 196.96C261.144 197.744 260.34 198.963 259.929 199.67C259.519 200.377 258.626 201.812 257.946 202.859C257.266 203.907 256.709 204.826 256.709 204.903C256.709 204.98 256.936 205.042 257.214 205.042C257.788 205.042 258.549 204.621 263.127 201.766C268.511 198.41 271.804 196.977 278.663 195.006C280.404 194.505 283.135 193.577 284.731 192.944C288.281 191.535 290.922 190.665 295.842 189.283C302.237 187.486 311.082 185.488 314.473 185.074C316.061 184.88 317.005 185.405 318.248 187.174C319.791 189.371 323.081 196.222 324.019 199.191C325.35 203.407 327.229 213.304 328.255 221.509C328.577 224.078 329.149 228.02 329.527 230.268C329.906 232.516 330.483 236.037 330.81 238.093C332.051 245.883 333.492 252.463 335.042 257.406C335.975 260.383 337.396 267.262 338.048 271.966C338.386 274.404 338.809 277.03 338.987 277.8C339.509 280.058 340.029 283.87 340.029 285.448C340.03 286.252 340.239 288.539 340.495 290.53C340.975 294.275 341.554 296.431 344.347 304.875L345.576 308.592L345.482 302.889C345.371 296.183 345.304 295.032 344.818 291.464C344.616 289.987 344.356 287.09 344.239 285.027C344.107 282.708 343.792 280.121 343.414 278.253C343.077 276.591 342.495 273.234 342.12 270.793C341.745 268.352 341.115 264.89 340.719 263.1C340.148 260.511 339.009 252.059 339.2 251.819C339.224 251.789 339.761 252.472 340.394 253.337C344.286 258.659 356.416 271.794 360.68 275.303C361.708 276.15 363.285 277.545 364.184 278.403C365.083 279.261 367.446 281.416 369.435 283.192C371.425 284.968 373.21 286.604 373.403 286.829C373.866 287.368 380.111 291.934 385.393 295.595C387.719 297.208 392.039 300.336 394.991 302.546C397.943 304.757 401.829 307.564 403.626 308.785C409.259 312.612 411.011 313.92 413.126 315.879C415.291 317.884 415.586 318.1 421.13 321.711C425.287 324.419 430.704 328.718 432.703 330.896C433.491 331.754 435.521 334.296 437.214 336.544C444.509 346.231 447.942 350.52 448.034 350.061C448.099 349.733 446.463 345.303 445.374 342.86C444.362 340.592 440.406 334.453 437.725 330.992C433.383 325.387 429.458 321.64 423.836 317.731L421.874 316.367L423.72 315.967C424.734 315.747 426.265 315.302 427.122 314.979C429.784 313.971 435.192 311.102 436.476 310.015C437.15 309.445 438.699 308.153 439.918 307.145C444.752 303.146 449.985 296.957 452.948 291.732C453.74 290.335 454.388 289.125 454.388 289.043C454.388 288.384 453.003 289.55 448.945 293.625C446.355 296.227 443.133 299.21 441.785 300.256C438.341 302.928 434.244 305.658 432.454 306.475C429.753 307.706 425.404 309.216 422.486 309.933C420.921 310.318 419.04 310.84 418.306 311.093C417.573 311.345 416.77 311.552 416.522 311.552C416.275 311.552 414.689 310.522 413 309.264C411.31 308.006 409.403 306.622 408.761 306.189C408.119 305.756 406.818 304.709 405.871 303.863C402.754 301.083 400.657 299.39 395.529 295.516C392.744 293.412 389.185 290.636 387.62 289.347C383.391 285.861 381.377 284.321 377.314 281.461C372.619 278.157 368.399 274.877 364.736 271.684C352.443 260.97 347.291 255.337 343.666 248.641C342.385 246.276 336.392 232.743 336.201 231.786C336.124 231.401 335.903 229.858 335.71 228.358C335.278 225.008 333.164 213.275 332.561 210.882C332.318 209.918 331.899 207.834 331.631 206.25C331.362 204.667 330.51 200.83 329.736 197.725C328.597 193.152 328.114 191.635 327.194 189.743C324.802 184.825 322.054 181.512 319.152 180.05C317.592 179.264 317.436 179.233 315.068 179.253C313.71 179.264 311.255 179.502 309.596 179.783C307.94 180.063 306.546 180.253 306.497 180.204C306.355 180.062 310.406 174.738 312.326 172.544C316.395 167.897 322.148 163.938 328.009 161.753C332.725 159.995 339.981 158.354 345.746 157.743C349.914 157.3 353.373 156.779 354.498 156.423C357.534 155.462 364.291 151.823 364.298 151.145C364.302 150.714 362.938 150.803 359.913 151.432ZM222.051 212.651C212.885 213.459 204.616 214.858 197.312 216.837C190.502 218.683 178.784 223.119 172.34 226.291C169.062 227.905 163.862 230.855 163.26 231.442C163.011 231.686 163.98 233.062 165.23 234.239C165.707 234.689 167.45 236.474 169.102 238.206C173.996 243.338 176.925 245.468 180.859 246.76C182.604 247.333 183.207 247.412 185.876 247.423L188.91 247.436L190.592 246.572C192.63 245.524 198.523 241.498 200.93 239.508C201.893 238.712 204.098 236.997 205.831 235.697C207.564 234.397 209.612 232.801 210.382 232.151C211.152 231.501 213.253 229.773 215.05 228.311C218.669 225.366 223.448 220.583 225.462 217.889C226.781 216.125 228.236 213.51 228.236 212.904C228.236 212.708 227.886 212.52 227.361 212.433C226.338 212.264 226.546 212.255 222.051 212.651ZM145.384 251.417C142.196 253.65 140.048 255.613 139.518 256.779C138.433 259.162 139.445 266.218 141.134 268.041C141.629 268.576 141.803 268.621 142.889 268.492C144.903 268.254 146.196 266.885 146.409 264.767C146.476 264.099 146.806 261.204 147.143 258.335C147.791 252.824 148.079 249.64 147.926 249.678C147.876 249.69 146.732 250.473 145.384 251.417ZM105.814 255.275C103.782 256.681 99.926 260.561 97.2386 263.903C91.5334 270.998 88.267 277.229 84.9589 287.329C82.8031 293.912 82.4983 295.569 82.5018 300.691C82.506 306.849 83.4111 312.637 85.0698 317.116L85.6596 318.708L88.157 320.143C92.9597 322.902 100.886 326.286 104.976 327.323C107.604 327.989 110.874 328.425 111.155 328.147C111.564 327.743 112.702 323.881 113.266 320.986C114.842 312.895 115.86 296.522 115.324 287.896C114.236 270.38 113.46 263.433 112.043 258.517C111.214 255.641 110.635 254.938 108.887 254.686C108.261 254.596 107.626 254.475 107.477 254.418C107.327 254.36 106.579 254.746 105.814 255.275ZM273.98 261.571C272.448 261.782 267.961 263.566 265.74 264.847C258.101 269.253 249.45 277.938 242.835 287.844C239.252 293.209 237.696 296.914 235.593 305.092C233.188 314.445 232.805 317.802 233.146 326.499C233.274 329.776 233.428 332.676 233.487 332.944C233.622 333.558 234.184 333.723 239.672 334.765C245.424 335.857 246.677 336.015 252.19 336.347C259.381 336.78 264.005 336.304 270.818 334.431C272.737 333.904 277.935 332.751 282.37 331.871C290.436 330.269 293.692 329.382 297.173 327.838L299.011 327.023L299.082 321.214C299.177 313.379 298.646 303.432 297.896 298.99C296.818 292.608 295.51 287.922 293.123 281.888C291.429 277.606 290.683 276.133 288.801 273.355C285.799 268.924 282.784 265.628 280.233 263.99C278.798 263.068 275.479 261.292 275.328 261.364C275.293 261.381 274.686 261.474 273.98 261.571ZM187.154 273.605C186.401 274.386 184.811 275.604 177.805 280.769C174.434 283.254 170.545 286.604 169.271 288.12C167.001 290.823 166.848 291.69 168.232 294.02C170.296 297.498 174.49 300.418 181.347 303.152C182.647 303.67 184.119 304.303 184.619 304.558L185.527 305.021L185.983 304.271C186.626 303.214 188.007 298.857 188.431 296.555C189.366 291.471 190.02 281.488 189.691 277.333C189.345 272.958 188.697 272.006 187.154 273.605Z" fill="#FEFEFE"/>
<defs>
<linearGradient id="paint0_linear_42_14" x1="8.08403" y1="2.00198e-06" x2="265.5" y2="286.5" gradientUnits="userSpaceOnUse">
<stop stop-color="#21DB76"/>
<stop offset="1" stop-color="#0E8846"/>
</linearGradient>
</defs>
</svg>
